<svg width="200" height="44" viewBox="0 0 200 44" fill="none" xmlns="http://www.w3.org/2000/svg">
<path d="M21.4188 0.936131C21.021 1.08269 20.6902 1.38838 20.5018 1.79037C20.4096 1.98719 20.3929 2.07513 20.3929 2.4185C20.3971 2.76187 20.4096 2.84981 20.5101 3.06337L20.6232 3.31043L19.8527 4.08512L19.0822 4.8598L18.944 4.7928C18.7933 4.7258 17.6752 4.40755 17.0429 4.25681C16.5907 4.15212 16.331 4.17305 15.9877 4.34474C15.7992 4.44106 15.5647 4.65043 14.9492 5.27436C14.1787 6.05742 14.1494 6.09092 14.0572 6.3673C13.9316 6.74836 13.94 6.91586 14.1159 7.54817C14.1996 7.84967 14.3043 8.23491 14.3462 8.4066C14.476 8.90491 14.5597 9.1771 14.6058 9.23573C14.6393 9.2776 14.4634 9.4786 13.873 10.069L13.0983 10.8437L12.9559 10.7683C12.0221 10.2868 10.8873 10.8186 10.6737 11.8445C10.5272 12.548 10.8706 13.2431 11.528 13.5656C11.7834 13.6912 11.8379 13.7038 12.2064 13.7038C12.5539 13.7038 12.6335 13.687 12.8512 13.5865L13.1025 13.4735L13.9316 14.2984C14.388 14.7548 14.7607 15.1443 14.7607 15.1652C14.7607 15.1861 14.6267 15.3411 14.4676 15.5086C14.3043 15.6761 14.1326 15.898 14.0865 16.0069C13.9693 16.2749 13.9442 16.6183 14.0237 16.9281C14.2373 17.7782 14.5137 18.7539 14.5765 18.8879L14.6519 19.047L13.8772 19.8175L13.1067 20.588L12.8973 20.4833C12.6167 20.3493 12.2692 20.2949 11.9719 20.3409C10.9292 20.5126 10.3513 21.5804 10.7826 22.5436L10.8999 22.8032L10.1294 23.5695L9.36306 24.3358L9.22487 24.2604C9.1495 24.2227 8.86893 24.1348 8.60512 24.0636C8.34131 23.9966 7.86812 23.871 7.55825 23.7914C6.67888 23.5611 6.3355 23.6323 5.82044 24.1515C5.66132 24.3149 5.51057 24.4447 5.48544 24.4447C5.46032 24.4447 5.07088 24.072 4.61445 23.6155L3.78532 22.7864L3.90257 22.5394C4.00726 22.3174 4.01982 22.2379 4.01982 21.8903C4.01982 21.5218 4.00726 21.4674 3.88164 21.2119C3.57176 20.5838 2.91014 20.2362 2.23177 20.3451C1.88002 20.4037 1.67483 20.5001 1.41521 20.7346C0.732646 21.3501 0.741021 22.4305 1.43196 23.0628C1.65808 23.268 1.96377 23.402 2.34902 23.4606C2.54164 23.4899 3.03995 23.3894 3.1907 23.2931C3.24095 23.2596 3.30795 23.2303 3.33726 23.2303C3.36658 23.2303 3.76857 23.6072 4.2292 24.0678L5.0667 24.9053L4.7652 25.2068C4.39251 25.5879 4.28364 25.7972 4.25851 26.1825C4.24176 26.4421 4.26689 26.5803 4.47207 27.355C4.7987 28.5819 4.81963 28.6489 4.97457 28.8457C5.20907 29.1514 5.42263 29.2645 6.15544 29.4655C6.52394 29.566 6.99294 29.6958 7.19813 29.7502C7.65875 29.88 8.10262 29.8717 8.40412 29.7293C8.52556 29.6665 8.86475 29.3608 9.40493 28.8206C10.5732 27.6481 10.59 27.6062 10.2382 26.2662C10.1168 25.8056 9.99956 25.3575 9.98281 25.2696C9.96187 25.1817 9.90324 25.0267 9.85718 24.9262L9.76924 24.742L10.5272 23.9882C10.9459 23.5695 11.3019 23.2303 11.3228 23.2303C11.3437 23.2303 11.4442 23.268 11.5489 23.3141C12.0179 23.5234 12.4618 23.5067 12.9475 23.2722C13.2239 23.134 13.4668 22.8869 13.6217 22.5729C13.8185 22.1918 13.8144 21.5679 13.6092 21.191L13.5087 20.9984L14.2792 20.2279C14.7021 19.8049 15.058 19.4616 15.0664 19.4616C15.0748 19.4616 15.1376 19.4909 15.2046 19.5244C15.3051 19.5704 16.6786 19.9641 16.7498 19.9641C16.7623 19.9641 16.7707 20.7932 16.7707 21.8066V23.649H16.6158C16.3687 23.649 16.0421 23.7537 15.8453 23.8919C15.594 24.0678 14.2917 25.391 14.1661 25.5962C14.0489 25.7889 13.9651 26.0862 13.9651 26.3165C13.9651 26.4044 14.0112 26.6431 14.0698 26.8525C14.1242 27.0577 14.208 27.3801 14.2582 27.5643C14.4383 28.226 14.5555 28.6112 14.5932 28.6489C14.6184 28.674 14.6351 28.7117 14.6351 28.7368C14.6351 28.762 14.2917 29.1263 13.873 29.545L13.1067 30.3113L12.9392 30.2276C12.1519 29.8382 11.193 30.148 10.8036 30.9227C10.4057 31.7267 10.7449 32.6773 11.5699 33.0625C11.775 33.1588 11.863 33.1756 12.2064 33.1756C12.5497 33.1756 12.6377 33.1588 12.8429 33.0625C13.1527 32.916 13.4584 32.627 13.605 32.3423C13.8185 31.9235 13.8227 31.3331 13.6175 30.9353L13.5129 30.7385L14.2834 29.968L15.0497 29.2017L15.3135 29.2938C15.46 29.344 15.7573 29.432 15.9751 29.4906C16.1928 29.5492 16.5153 29.6372 16.687 29.6832C17.2355 29.834 17.29 29.8465 17.5538 29.8465C17.9683 29.8465 18.2322 29.7251 18.6216 29.3524L18.9524 29.0342L19.7941 29.88L20.6358 30.7217L20.5478 30.9018C20.4306 31.1572 20.372 31.3875 20.372 31.6053C20.372 31.8356 20.4725 32.2418 20.5688 32.4051L20.64 32.5265L19.8904 33.2845C19.3083 33.8665 19.1157 34.034 19.0529 34.0173C19.0068 34.0047 18.8561 33.9586 18.7179 33.9168C18.5797 33.8707 18.3159 33.7953 18.1317 33.7451C17.9474 33.699 17.5915 33.6027 17.336 33.5315C16.8084 33.3891 16.4692 33.3724 16.1384 33.4771C15.9332 33.5399 15.8285 33.6278 15.0455 34.4025C13.7599 35.6713 13.7725 35.6211 14.3629 37.6478C14.4215 37.8488 14.4676 38.0372 14.4676 38.0666C14.4676 38.1712 14.6895 38.5816 14.8152 38.7156C15.0287 38.9417 15.2716 39.0381 16.3771 39.3354C17.9432 39.7541 17.9432 39.7583 19.1367 38.5565C19.9909 37.6981 20.0998 37.5473 20.1584 37.1244C20.1877 36.8941 20.1751 36.7978 20.0579 36.3371C19.7815 35.2693 19.6517 34.8045 19.5805 34.6412L19.5051 34.4737L20.2756 33.699L21.0461 32.9285L21.222 33.0165C21.4942 33.1546 21.6617 33.1965 21.9213 33.1965C22.1768 33.1965 22.5495 33.1044 22.7128 32.9997C22.8091 32.9369 22.8258 32.9495 23.6424 33.766C24.103 34.2224 24.4757 34.6161 24.4757 34.637C24.4757 34.6579 24.3543 34.8003 24.2077 34.9511C23.8601 35.3154 23.7596 35.5164 23.7345 35.9142C23.7136 36.1948 23.7345 36.312 23.8895 36.9024C24.2286 38.1922 24.2705 38.3262 24.3501 38.4392C24.3961 38.5021 24.4338 38.5691 24.4338 38.59C24.4338 38.6486 24.773 38.9166 24.9405 38.9962C25.0201 39.0297 25.5058 39.1762 26.0251 39.3186C26.8165 39.5364 27.0217 39.5782 27.3023 39.5782C27.8131 39.5782 27.9262 39.5071 28.8014 38.6444C29.6305 37.8321 29.7519 37.6771 29.8524 37.3421C29.9655 36.9611 29.9655 36.9694 29.5467 35.4033C29.3541 34.6914 29.2662 34.4821 29.0819 34.2894C28.86 34.0591 28.6004 33.9377 28.0099 33.7828C27.7378 33.7116 27.2981 33.5985 27.0384 33.5273C26.1758 33.3054 25.8241 33.3766 25.2755 33.8916L24.9447 34.2057L24.0988 33.3598L23.253 32.514L23.3241 32.3883C23.5586 31.9905 23.567 31.3959 23.3409 30.9185L23.2571 30.7385L24.0151 29.9722L24.7688 29.2017L25.0326 29.2938C25.175 29.3398 25.6901 29.4864 26.1716 29.6204C26.9924 29.8382 27.0761 29.8549 27.3944 29.834C27.8048 29.8088 27.922 29.7502 28.3575 29.3273L28.6632 29.0383L29.5007 29.8717C30.0325 30.3993 30.334 30.7301 30.3214 30.7678C30.3131 30.8013 30.267 30.9269 30.2209 31.0483C30.0492 31.5048 30.066 31.9235 30.2837 32.3506C30.4345 32.648 30.6732 32.8741 31.0082 33.0416C31.2552 33.163 31.3139 33.1756 31.6782 33.1756C32.0174 33.1756 32.1095 33.1588 32.3147 33.0625C32.6329 32.916 32.9135 32.648 33.0726 32.3381C33.1982 32.0994 33.2066 32.0617 33.2066 31.6262C33.2066 31.2284 33.194 31.1363 33.1103 30.9646C32.7209 30.1522 31.7326 29.8256 30.9244 30.2443L30.7862 30.3155L29.9571 29.4864C29.4965 29.0258 29.1238 28.6363 29.1238 28.6112C29.1238 28.5861 29.2452 28.4479 29.396 28.3013C29.7687 27.9328 29.8985 27.6648 29.8943 27.2503C29.8943 26.9907 29.8482 26.7562 29.6137 25.9103C29.3122 24.8174 29.2494 24.6792 28.9479 24.4321C28.7469 24.2688 28.5627 24.185 28.1607 24.0887C28.0099 24.051 27.7126 23.9715 27.5033 23.9129L27.1138 23.804V21.9699V20.1316H27.2394C27.4446 20.1316 27.7964 20.0436 27.9513 19.9515C28.0309 19.9054 28.2235 19.7421 28.3826 19.5914L28.6632 19.315L29.5091 20.1609L30.3507 21.0026L30.2293 21.2873C30.1288 21.5302 30.1079 21.6307 30.1121 21.9112C30.1162 22.1918 30.1372 22.2923 30.2419 22.5184C30.4094 22.8786 30.6146 23.1047 30.9119 23.2596C31.3767 23.5067 31.8499 23.5234 32.3482 23.3099L32.5617 23.2177L33.3909 24.0301C33.8473 24.4782 34.2242 24.8592 34.2242 24.8802C34.2284 24.9011 34.1027 25.0519 33.9478 25.2152C33.4369 25.7512 33.3448 26.128 33.5416 26.8525C33.6002 27.0828 33.7259 27.5476 33.8138 27.8868C33.9059 28.226 34.019 28.5819 34.0692 28.6824C34.2493 29.0342 34.5466 29.2435 35.0868 29.3943C35.4595 29.499 36.4184 29.7544 36.6404 29.813C36.9042 29.88 37.4067 29.834 37.6244 29.7251C37.8338 29.6162 39.1822 28.3097 39.3873 28.0166C39.6763 27.602 39.7056 27.2252 39.5088 26.5175C39.4418 26.262 39.3413 25.9061 39.2952 25.7219C39.245 25.5376 39.157 25.2403 39.0984 25.056L38.9979 24.7294L39.7433 23.9757C40.2165 23.5025 40.518 23.2345 40.5556 23.247C40.5891 23.2554 40.7148 23.3015 40.832 23.3475C41.167 23.4732 41.389 23.4941 41.7281 23.4229C42.0883 23.3475 42.3228 23.2177 42.5531 22.9665C43.5665 21.8652 42.6243 20.1022 41.1545 20.3409C40.6436 20.4247 40.2416 20.7304 40.0071 21.2036C39.8731 21.4716 39.8647 21.5176 39.8647 21.9112C39.8647 22.2881 39.8773 22.3509 39.9862 22.5561L40.1034 22.7822L39.3329 23.5527L38.5624 24.3232L38.3949 24.252C38.307 24.2144 37.817 24.0678 37.3103 23.9296C35.9117 23.5485 35.6186 23.5737 35.0282 24.1348C34.8481 24.3065 34.689 24.4447 34.6722 24.4447C34.622 24.4447 33.0182 22.8409 33.0182 22.7948C33.0182 22.7739 33.0684 22.6315 33.127 22.4849C33.2234 22.2462 33.2317 22.1667 33.2192 21.8317C33.2024 21.3627 33.081 21.0654 32.7795 20.7806C32.5282 20.5377 32.3356 20.4331 31.9755 20.3619C31.6321 20.2865 31.2427 20.3367 30.9705 20.4917L30.7862 20.5922L29.9571 19.7631C29.4965 19.3066 29.1238 18.9172 29.1238 18.8963C29.1238 18.8753 29.2452 18.7329 29.396 18.578C29.7142 18.2514 29.8776 17.9289 29.9069 17.5856C29.9236 17.3469 29.9027 17.2422 29.5886 16.1116C29.5426 15.9399 29.4714 15.6761 29.4337 15.5253C29.396 15.3746 29.3374 15.1987 29.3039 15.1317L29.2411 15.0103L30.0116 14.2398L30.7821 13.4693L31.0291 13.5823C31.3851 13.7456 31.7912 13.7666 32.189 13.6368C32.4487 13.5572 32.5324 13.5028 32.7502 13.2892C33.1312 12.904 33.2066 12.7197 33.2066 12.1544C33.2066 11.7105 33.2024 11.6854 33.0684 11.4383C32.6622 10.6846 31.8499 10.3998 31.0459 10.7265L30.7779 10.8353L29.9529 10.0062C29.4965 9.55397 29.1238 9.16454 29.1238 9.13941C29.1238 9.11429 29.2494 8.9761 29.4002 8.82535C29.7226 8.51129 29.8776 8.21817 29.9069 7.8706C29.9278 7.62773 29.9111 7.54817 29.5007 6.01974C29.2452 5.06918 29.061 4.87655 28.1523 4.62112C26.8668 4.26099 26.4396 4.16887 26.2009 4.19818C25.8492 4.24006 25.6231 4.36149 25.2923 4.67974C25.1289 4.84305 24.974 4.97287 24.9531 4.97287C24.9321 4.97287 24.5385 4.59599 24.0821 4.13956C23.2488 3.30624 23.2488 3.30206 23.3158 3.20156C23.3535 3.14712 23.4121 2.98381 23.4456 2.84562C23.6424 2.10025 23.3367 1.39675 22.6667 1.03663C22.428 0.906815 22.3652 0.894253 22.0051 0.881691C21.7161 0.873318 21.557 0.88588 21.4188 0.936131ZM21.222 3.8213C21.2723 3.8548 21.4356 3.91343 21.5821 3.95112C21.9088 4.03487 22.2061 4.00555 22.583 3.8548L22.851 3.75012L23.6926 4.5918L24.5343 5.43349L24.237 5.73917C23.8559 6.12442 23.7554 6.32542 23.7303 6.73161C23.7136 7.01217 23.7387 7.13779 23.9271 7.86223C24.2831 9.19804 24.2956 9.23573 24.5553 9.50791C24.7604 9.72985 24.9949 9.83872 25.6063 9.99785C25.8953 10.0732 26.3266 10.1863 26.5653 10.2533C27.4279 10.492 27.8131 10.4082 28.3617 9.87222L28.6632 9.57072L29.5007 10.3998C29.9613 10.8563 30.3382 11.2499 30.3382 11.2792C30.3382 11.3127 30.3005 11.409 30.2544 11.497C30.0576 11.8738 30.0576 12.3931 30.2544 12.8244C30.3047 12.9291 30.3382 13.038 30.3298 13.0547C30.3005 13.1385 28.8516 14.5622 28.8014 14.5622C28.7679 14.5622 28.7009 14.5413 28.6506 14.512C28.6004 14.4868 28.3994 14.424 28.2026 14.3696C28.0057 14.3193 27.7419 14.2481 27.6163 14.2146C26.4606 13.8964 26.2386 13.8713 25.8324 14.022C25.6524 14.089 25.51 14.1895 25.2755 14.4198C25.0996 14.5915 24.9489 14.7297 24.9363 14.7297C24.9238 14.7297 24.5427 14.3528 24.0821 13.8922L23.253 13.0589L23.3409 12.8705C23.5545 12.4308 23.5503 11.8362 23.3367 11.4174C23.1901 11.141 22.851 10.8312 22.5662 10.7139C21.4942 10.2868 20.372 11.0322 20.372 12.1753C20.372 12.4098 20.4725 12.7825 20.5855 12.9626C20.64 13.0505 20.6023 13.0966 19.8904 13.8085C19.3042 14.3947 19.1199 14.5622 19.0529 14.5455C19.0068 14.5329 18.743 14.4617 18.4667 14.3821C17.2774 14.0388 16.8293 13.9341 16.5613 13.9341C16.1803 13.9341 15.9081 14.0681 15.5229 14.4491L15.2214 14.7506L14.3755 13.9048L13.5338 13.0631L13.6301 12.8411C13.8185 12.3973 13.8102 11.8655 13.6092 11.4677L13.5087 11.2667L14.2917 10.4878C15.0245 9.76335 15.079 9.7131 15.1585 9.76753C15.2046 9.80103 15.7071 9.95178 16.2682 10.1067C17.9265 10.5548 17.9432 10.5464 19.1073 9.39485C20.037 8.47779 20.1249 8.35217 20.1542 7.86223C20.171 7.57329 20.15 7.45604 19.8946 6.5013C19.7397 5.92342 19.5889 5.41674 19.5554 5.37067C19.5051 5.29111 19.5512 5.23249 20.2589 4.52061C20.6776 4.10187 21.0461 3.7585 21.0755 3.7585C21.1048 3.7585 21.1718 3.78781 21.222 3.8213ZM21.2346 13.553C21.6743 13.7666 22.2061 13.775 22.5997 13.5781L22.8175 13.4693L23.6591 14.2984C24.1239 14.7548 24.5092 15.1359 24.5092 15.1485C24.5134 15.161 24.3836 15.3076 24.2203 15.4751C23.8769 15.8268 23.7596 16.0613 23.7303 16.4549L23.7094 16.7397L21.8669 16.7313L20.0202 16.7188L19.9867 16.5931C19.7815 15.8017 19.6098 15.2071 19.5596 15.115C19.501 15.0019 19.501 15.0019 20.2589 14.2398C20.6776 13.821 21.0336 13.4776 21.0461 13.4776C21.0587 13.4735 21.1425 13.5111 21.2346 13.553ZM23.9188 17.5353C24.0109 17.8913 24.1784 18.5194 24.2244 18.6869C24.2789 18.8669 24.4003 19.0889 24.5385 19.2438C24.6851 19.4155 25.0284 19.5746 25.6063 19.7296C25.9162 19.8175 26.247 19.9096 26.3391 19.9347L26.5066 19.985L26.5192 21.8107L26.5276 23.6365L26.2554 23.6616C25.7654 23.7077 25.6608 23.7789 24.7353 24.7085C23.8225 25.6297 23.7722 25.7009 23.7261 26.1741L23.701 26.4589H21.8836C20.8828 26.4589 20.0495 26.4421 20.0328 26.4254C20.016 26.4044 19.9323 26.128 19.8485 25.8056C19.6559 25.0477 19.5931 24.8844 19.4256 24.654C19.2162 24.3609 18.9398 24.2269 18.1023 24.0008L17.357 23.804V21.9741V20.1441L17.625 20.1232C18.094 20.0855 18.2573 19.9766 19.0906 19.1433C19.501 18.7329 19.882 18.3351 19.9365 18.2639C20.0746 18.0839 20.1668 17.8033 20.1668 17.5437L20.171 17.3259L22.0218 17.3343L23.8685 17.3469L23.9188 17.5353ZM23.9104 27.2545C23.9397 27.355 24.0025 27.5978 24.0569 27.7947C24.1072 27.9915 24.1993 28.2972 24.2579 28.4772L24.3668 28.8038L23.6047 29.5618L22.8468 30.3239L22.6039 30.2025C22.1768 29.9931 21.5821 30.014 21.1634 30.2527C21.0545 30.3155 21.0545 30.3155 20.2086 29.4697L19.3628 28.6196L19.6517 28.3223C20.0035 27.9622 20.1249 27.736 20.15 27.401C20.1626 27.2587 20.1751 27.1247 20.1835 27.1037C20.1877 27.0786 20.8368 27.0618 22.026 27.066L23.8601 27.0702L23.9104 27.2545Z" fill="#018343"/>
<path d="M21.6788 20.3454C21.1805 20.4292 20.7618 20.7432 20.5315 21.2122C20.41 21.4593 20.3975 21.5221 20.3933 21.8864C20.3933 22.2591 20.4058 22.3093 20.5315 22.569C21.1219 23.775 22.8095 23.7498 23.379 22.5271C23.4753 22.3219 23.492 22.234 23.492 21.8906C23.492 21.5221 23.4795 21.4677 23.3538 21.2122C23.044 20.5841 22.3656 20.2324 21.6788 20.3454Z" fill="#018343"/>
<path d="M6.41987 13.9974C6.14768 14.0979 5.92575 14.2822 5.16781 15.0527C4.09581 16.133 4.08744 16.1791 4.502 17.741C4.86212 19.0768 4.96262 19.2611 5.4735 19.5291C5.61587 19.6045 7.42905 20.086 7.68868 20.1195C7.90643 20.1446 8.23305 20.0818 8.47174 19.9646C8.55549 19.9227 8.97842 19.5333 9.40974 19.0978C10.3435 18.1598 10.4231 18.03 10.4231 17.5149C10.4231 17.2385 10.377 17.0166 10.1802 16.2796C9.90386 15.2411 9.80755 15.0108 9.57305 14.7805C9.33017 14.546 9.21711 14.4999 8.10743 14.2026C7.05637 13.9178 6.73812 13.8802 6.41987 13.9974Z" fill="#018343"/>
<path d="M35.5734 14.0053C35.4226 14.0598 35.2216 14.2356 34.5433 14.9056C33.6094 15.8311 33.4922 15.9944 33.4545 16.4131C33.4294 16.6979 33.4252 16.6895 33.689 17.6819C34.0073 18.9005 34.0449 18.9843 34.3129 19.2564C34.5139 19.4533 34.6019 19.5119 34.8448 19.5873C35.5608 19.8134 36.8296 20.1316 37.0055 20.1316C37.2023 20.1316 37.5624 20.0269 37.7174 19.9306C37.7886 19.8846 38.1947 19.4993 38.6177 19.0764C39.5515 18.1468 39.6101 18.0546 39.6143 17.5144C39.6143 17.1794 39.585 17.0287 39.3505 16.1745C39.0867 15.2071 38.9862 14.9643 38.7684 14.7675C38.5172 14.5371 38.4083 14.4953 37.4159 14.2315C37.2442 14.1854 36.9217 14.1016 36.6956 14.043C36.2392 13.9174 35.8581 13.909 35.5734 14.0053Z" fill="#018343"/>
<path d="M21.6537 39.8127C21.1847 39.8923 20.7576 40.2231 20.5315 40.6837C20.4058 40.9392 20.3933 40.9936 20.3933 41.3621C20.3933 41.7013 20.41 41.7934 20.5022 41.9902C20.7283 42.476 21.1303 42.79 21.6579 42.8989C21.9427 42.9575 21.9971 42.9575 22.24 42.8947C22.6126 42.8068 22.7718 42.723 23.0272 42.4886C23.1738 42.3546 23.291 42.1996 23.3706 42.0237C23.4753 41.7934 23.492 41.7097 23.492 41.3621C23.492 41.0146 23.4753 40.9308 23.3748 40.7131C23.1654 40.2608 22.7801 39.9509 22.2902 39.8337C22.0013 39.7667 21.9552 39.7667 21.6537 39.8127Z" fill="#018343"/>
<path d="M69.2957 7.16C70.7704 7.16 71.9557 7.636 72.8517 8.588C73.7477 9.54 74.1957 10.9587 74.1957 12.844V22H70.6117V13.684C70.6117 12.508 70.3784 11.6213 69.9117 11.024C69.4451 10.4267 68.7731 10.128 67.8957 10.128C66.9997 10.128 66.2811 10.436 65.7397 11.052C65.1984 11.6493 64.9277 12.5267 64.9277 13.684V22H61.3437V13.684C61.3437 12.508 61.1104 11.6213 60.6437 11.024C60.1957 10.4267 59.5331 10.128 58.6557 10.128C57.7597 10.128 57.0411 10.436 56.4997 11.052C55.9584 11.6493 55.6877 12.5267 55.6877 13.684V22H52.1037V7.44H55.6877V10.436H55.7997C55.8744 9.96933 56.0984 9.484 56.4717 8.98C56.8451 8.476 57.3397 8.04666 57.9557 7.692C58.5904 7.33733 59.3277 7.16 60.1677 7.16C61.2317 7.16 62.1557 7.44 62.9397 8C63.7424 8.56 64.3024 9.4 64.6197 10.52C64.7317 10.0347 64.9744 9.54 65.3477 9.036C65.7397 8.51333 66.2717 8.07466 66.9437 7.72C67.6157 7.34666 68.3997 7.16 69.2957 7.16ZM78.9973 5.396C78.4373 5.396 77.952 5.20933 77.5413 4.836C77.1493 4.444 76.9533 3.97733 76.9533 3.43599C76.9533 2.876 77.1493 2.40933 77.5413 2.03599C77.952 1.64399 78.4373 1.448 78.9973 1.448C79.5386 1.448 80.0053 1.64399 80.3973 2.03599C80.808 2.40933 81.0133 2.876 81.0133 3.43599C81.0133 3.97733 80.808 4.444 80.3973 4.836C80.0053 5.20933 79.5386 5.396 78.9973 5.396ZM77.2053 7.44H80.7893V22H77.2053V7.44ZM92.2512 7.16C93.7632 7.16 94.9858 7.636 95.9192 8.588C96.8525 9.54 97.3192 10.9587 97.3192 12.844V22H93.7352V13.684C93.7352 12.508 93.4832 11.6213 92.9792 11.024C92.4752 10.4267 91.7378 10.128 90.7672 10.128C89.7405 10.128 88.9192 10.436 88.3032 11.052C87.6872 11.6493 87.3792 12.5267 87.3792 13.684V22H83.7952V7.44H87.3792V10.436H87.4912C87.6032 9.95066 87.8458 9.456 88.2192 8.952C88.5925 8.448 89.1152 8.028 89.7872 7.692C90.4778 7.33733 91.2992 7.16 92.2512 7.16ZM114.142 2.39999V22H110.558V19.872C110.185 20.6 109.597 21.188 108.794 21.636C108.01 22.0653 107.095 22.28 106.05 22.28C104.949 22.28 103.903 22.0093 102.914 21.468C101.943 20.9267 101.15 20.0867 100.534 18.948C99.9368 17.8093 99.6381 16.4 99.6381 14.72C99.6381 13.04 99.9368 11.6307 100.534 10.492C101.15 9.35333 101.943 8.51333 102.914 7.972C103.903 7.43066 104.949 7.16 106.05 7.16C107.095 7.16 108.01 7.384 108.794 7.832C109.597 8.26133 110.185 8.84 110.558 9.568V2.39999H114.142ZM106.862 19.284C107.945 19.284 108.859 18.892 109.606 18.108C110.353 17.324 110.726 16.1947 110.726 14.72C110.726 13.2453 110.353 12.116 109.606 11.332C108.859 10.548 107.945 10.156 106.862 10.156C105.779 10.156 104.865 10.548 104.118 11.332C103.371 12.116 102.998 13.2453 102.998 14.72C102.998 16.1947 103.371 17.324 104.118 18.108C104.865 18.892 105.779 19.284 106.862 19.284ZM125.135 7.328C125.545 7.328 125.919 7.37466 126.255 7.468V10.492C125.825 10.436 125.452 10.408 125.135 10.408C123.847 10.408 122.792 10.8093 121.971 11.612C121.149 12.396 120.739 13.6 120.739 15.224V22H117.155V7.44H120.739V10.912H120.823C121.084 9.848 121.579 8.98933 122.307 8.336C123.035 7.664 123.977 7.328 125.135 7.328ZM130.075 5.396C129.515 5.396 129.03 5.20933 128.619 4.836C128.227 4.444 128.031 3.97733 128.031 3.43599C128.031 2.876 128.227 2.40933 128.619 2.03599C129.03 1.64399 129.515 1.448 130.075 1.448C130.617 1.448 131.083 1.64399 131.475 2.03599C131.886 2.40933 132.091 2.876 132.091 3.43599C132.091 3.97733 131.886 4.444 131.475 4.836C131.083 5.20933 130.617 5.396 130.075 5.396ZM128.283 7.44H131.867V22H128.283V7.44ZM140.221 22.28C138.299 22.28 136.787 21.8693 135.685 21.048C134.603 20.2267 134.052 19.0133 134.033 17.408H137.225C137.412 18.864 138.429 19.592 140.277 19.592C141.08 19.592 141.715 19.4427 142.181 19.144C142.667 18.8453 142.909 18.3973 142.909 17.8C142.909 17.3707 142.769 17.044 142.489 16.82C142.228 16.5773 141.799 16.3813 141.201 16.232L138.513 15.644C135.807 15.028 134.453 13.6373 134.453 11.472C134.453 10.1093 134.976 9.05466 136.021 8.308C137.067 7.54266 138.476 7.16 140.249 7.16C142.097 7.16 143.516 7.58 144.505 8.42C145.495 9.26 146.008 10.4547 146.045 12.004H143.077C142.909 10.5667 142.004 9.848 140.361 9.848C139.596 9.848 138.989 9.988 138.541 10.268C138.093 10.548 137.869 10.9307 137.869 11.416C137.869 11.8267 138.019 12.172 138.317 12.452C138.635 12.7133 139.083 12.9 139.661 13.012L142.433 13.628C143.74 13.9267 144.757 14.3933 145.485 15.028C146.232 15.644 146.605 16.54 146.605 17.716C146.605 19.2467 145.999 20.3947 144.785 21.16C143.591 21.9067 142.069 22.28 140.221 22.28ZM162.036 14.692C162.036 15.0467 162.008 15.364 161.952 15.644H151.452C151.564 17.0253 151.956 18.0427 152.628 18.696C153.319 19.3307 154.271 19.648 155.484 19.648C156.343 19.648 157.024 19.4707 157.528 19.116C158.032 18.7613 158.405 18.22 158.648 17.492H161.84C161.467 19.0973 160.692 20.3107 159.516 21.132C158.359 21.9533 156.94 22.364 155.26 22.364C153.935 22.364 152.731 22.1027 151.648 21.58C150.565 21.0387 149.697 20.208 149.044 19.088C148.391 17.9493 148.064 16.512 148.064 14.776C148.064 13.04 148.381 11.6027 149.016 10.464C149.669 9.32533 150.528 8.49466 151.592 7.972C152.675 7.43066 153.879 7.16 155.204 7.16C157.239 7.16 158.881 7.776 160.132 9.008C161.401 10.24 162.036 12.1347 162.036 14.692ZM158.648 13.656C158.611 12.4987 158.303 11.584 157.724 10.912C157.145 10.24 156.287 9.904 155.148 9.904C154.065 9.904 153.207 10.2213 152.572 10.856C151.937 11.4907 151.564 12.424 151.452 13.656H158.648ZM172.303 7.328C172.713 7.328 173.087 7.37466 173.423 7.468V10.492C172.993 10.436 172.62 10.408 172.303 10.408C171.015 10.408 169.96 10.8093 169.139 11.612C168.317 12.396 167.907 13.6 167.907 15.224V22H164.323V7.44H167.907V10.912H167.991C168.252 9.848 168.747 8.98933 169.475 8.336C170.203 7.664 171.145 7.328 172.303 7.328ZM180.553 22.28C178.631 22.28 177.119 21.8693 176.017 21.048C174.935 20.2267 174.384 19.0133 174.365 17.408H177.557C177.744 18.864 178.761 19.592 180.609 19.592C181.412 19.592 182.047 19.4427 182.513 19.144C182.999 18.8453 183.241 18.3973 183.241 17.8C183.241 17.3707 183.101 17.044 182.821 16.82C182.56 16.5773 182.131 16.3813 181.533 16.232L178.845 15.644C176.139 15.028 174.785 13.6373 174.785 11.472C174.785 10.1093 175.308 9.05466 176.353 8.308C177.399 7.54266 178.808 7.16 180.581 7.16C182.429 7.16 183.848 7.58 184.837 8.42C185.827 9.26 186.34 10.4547 186.377 12.004H183.409C183.241 10.5667 182.336 9.848 180.693 9.848C179.928 9.848 179.321 9.988 178.873 10.268C178.425 10.548 178.201 10.9307 178.201 11.416C178.201 11.8267 178.351 12.172 178.649 12.452C178.967 12.7133 179.415 12.9 179.993 13.012L182.765 13.628C184.072 13.9267 185.089 14.3933 185.817 15.028C186.564 15.644 186.937 16.54 186.937 17.716C186.937 19.2467 186.331 20.3947 185.117 21.16C183.923 21.9067 182.401 22.28 180.553 22.28Z" fill="#018343"/>
<path d="M53.1797 31.65H54.2717V39H53.1797V31.65ZM55.4869 31.65H56.6629L60.2539 37.2885H60.2854V31.65H61.3774V39H60.1594L56.5999 33.414H56.5789V39H55.4869V31.65ZM65.2923 39.105C64.3753 39.105 63.6613 38.895 63.1503 38.475C62.6463 38.055 62.3943 37.488 62.3943 36.774H63.5073C63.5283 37.194 63.6858 37.5335 63.9798 37.7925C64.2808 38.0515 64.7218 38.181 65.3028 38.181C65.8418 38.181 66.2513 38.0725 66.5313 37.8555C66.8113 37.6315 66.9513 37.327 66.9513 36.942C66.9513 36.599 66.8393 36.3365 66.6153 36.1545C66.3913 35.9725 66.0658 35.8395 65.6388 35.7555L64.6413 35.556C63.2833 35.29 62.6043 34.6285 62.6043 33.5715C62.6043 32.9415 62.8318 32.448 63.2868 32.091C63.7488 31.734 64.3858 31.5555 65.1978 31.5555C66.0168 31.5555 66.6678 31.7375 67.1508 32.1015C67.6408 32.4655 67.8858 32.966 67.8858 33.603H66.7728C66.7658 33.26 66.6223 32.987 66.3423 32.784C66.0693 32.581 65.6913 32.4795 65.2083 32.4795C64.7113 32.4795 64.3403 32.5845 64.0953 32.7945C63.8573 33.0045 63.7383 33.2705 63.7383 33.5925C63.7383 34.1805 64.1303 34.5515 64.9143 34.7055L65.8698 34.8945C66.6188 35.0415 67.1753 35.276 67.5393 35.598C67.9103 35.913 68.0958 36.3575 68.0958 36.9315C68.0958 37.6315 67.8438 38.1705 67.3398 38.5485C66.8358 38.9195 66.1533 39.105 65.2923 39.105ZM70.7389 32.6055H68.4814V31.65H74.0884V32.6055H71.8309V39H70.7389V32.6055ZM74.9488 31.65H76.0408V39H74.9488V31.65ZM79.1471 32.6055H76.8896V31.65H82.4966V32.6055H80.2391V39H79.1471V32.6055ZM86.2445 39.105C85.3485 39.105 84.6415 38.8565 84.1235 38.3595C83.6125 37.8625 83.357 37.1485 83.357 36.2175V31.65H84.449V36.144C84.449 36.788 84.6065 37.285 84.9215 37.635C85.2365 37.978 85.6775 38.1495 86.2445 38.1495C86.8115 38.1495 87.2525 37.978 87.5675 37.635C87.8825 37.285 88.04 36.788 88.04 36.144V31.65H89.1425V36.2175C89.1425 37.1415 88.88 37.8555 88.355 38.3595C87.837 38.8565 87.1335 39.105 86.2445 39.105ZM92.2516 32.6055H89.9941V31.65H95.6011V32.6055H93.3436V39H92.2516V32.6055ZM96.4615 31.65H101.239V32.6055H97.5535V34.8105H100.924V35.682H97.5535V38.0445H101.344V39H96.4615V31.65ZM107.909 39.105C107.244 39.105 106.656 38.9545 106.145 38.6535C105.634 38.3525 105.235 37.9185 104.948 37.3515C104.661 36.7775 104.517 36.102 104.517 35.325C104.517 34.548 104.661 33.876 104.948 33.309C105.235 32.742 105.634 32.308 106.145 32.007C106.656 31.706 107.244 31.5555 107.909 31.5555C108.567 31.5555 109.151 31.706 109.662 32.007C110.173 32.308 110.572 32.742 110.859 33.309C111.146 33.876 111.29 34.548 111.29 35.325C111.29 36.102 111.146 36.7775 110.859 37.3515C110.572 37.9185 110.173 38.3525 109.662 38.6535C109.151 38.9545 108.567 39.105 107.909 39.105ZM107.909 38.16C108.357 38.16 108.752 38.0515 109.095 37.8345C109.438 37.6105 109.704 37.285 109.893 36.858C110.082 36.431 110.177 35.92 110.177 35.325C110.177 34.429 109.97 33.736 109.557 33.246C109.144 32.749 108.595 32.5005 107.909 32.5005C107.216 32.5005 106.663 32.749 106.25 33.246C105.837 33.736 105.63 34.429 105.63 35.325C105.63 35.92 105.725 36.431 105.914 36.858C106.103 37.285 106.369 37.6105 106.712 37.8345C107.055 38.0515 107.454 38.16 107.909 38.16ZM112.304 31.65H117.029V32.6055H113.396V34.8945H116.388V35.7975H113.396V39H112.304V31.65ZM122.296 32.6055H120.038V31.65H125.645V32.6055H123.388V39H122.296V32.6055ZM126.505 31.65H131.283V32.6055H127.597V34.8105H130.968V35.682H127.597V38.0445H131.388V39H126.505V31.65ZM135.48 39.105C134.815 39.105 134.231 38.958 133.727 38.664C133.223 38.37 132.831 37.9395 132.551 37.3725C132.278 36.8055 132.141 36.123 132.141 35.325C132.141 34.527 132.278 33.848 132.551 33.288C132.831 32.721 133.223 32.2905 133.727 31.9965C134.231 31.7025 134.815 31.5555 135.48 31.5555C136.285 31.5555 136.95 31.7585 137.475 32.1645C138.007 32.5635 138.326 33.1515 138.431 33.9285H137.36C137.241 33.4595 137.017 33.106 136.688 32.868C136.366 32.623 135.963 32.5005 135.48 32.5005C134.78 32.5005 134.234 32.749 133.842 33.246C133.45 33.743 133.254 34.436 133.254 35.325C133.254 36.214 133.447 36.9105 133.832 37.4145C134.224 37.9115 134.773 38.16 135.48 38.16C135.963 38.16 136.366 38.041 136.688 37.803C137.017 37.558 137.241 37.1975 137.36 36.7215H138.431C138.326 37.5055 138.007 38.1005 137.475 38.5065C136.95 38.9055 136.285 39.105 135.48 39.105ZM143.985 31.65H145.066V39H143.985V35.829H140.425V39H139.333V31.65H140.425V34.926H143.985V31.65ZM146.295 31.65H147.471L151.062 37.2885H151.094V31.65H152.186V39H150.968L147.408 33.414H147.387V39H146.295V31.65ZM156.594 39.105C155.929 39.105 155.341 38.9545 154.83 38.6535C154.319 38.3525 153.92 37.9185 153.633 37.3515C153.346 36.7775 153.203 36.102 153.203 35.325C153.203 34.548 153.346 33.876 153.633 33.309C153.92 32.742 154.319 32.308 154.83 32.007C155.341 31.706 155.929 31.5555 156.594 31.5555C157.252 31.5555 157.837 31.706 158.348 32.007C158.859 32.308 159.258 32.742 159.545 33.309C159.832 33.876 159.975 34.548 159.975 35.325C159.975 36.102 159.832 36.7775 159.545 37.3515C159.258 37.9185 158.859 38.3525 158.348 38.6535C157.837 38.9545 157.252 39.105 156.594 39.105ZM156.594 38.16C157.042 38.16 157.438 38.0515 157.781 37.8345C158.124 37.6105 158.39 37.285 158.579 36.858C158.768 36.431 158.862 35.92 158.862 35.325C158.862 34.429 158.656 33.736 158.243 33.246C157.83 32.749 157.28 32.5005 156.594 32.5005C155.901 32.5005 155.348 32.749 154.935 33.246C154.522 33.736 154.316 34.429 154.316 35.325C154.316 35.92 154.41 36.431 154.599 36.858C154.788 37.285 155.054 37.6105 155.397 37.8345C155.74 38.0515 156.139 38.16 156.594 38.16ZM160.989 31.65H162.081V38.0445H165.725V39H160.989V31.65ZM169.658 39.105C168.993 39.105 168.405 38.9545 167.894 38.6535C167.383 38.3525 166.984 37.9185 166.697 37.3515C166.41 36.7775 166.266 36.102 166.266 35.325C166.266 34.548 166.41 33.876 166.697 33.309C166.984 32.742 167.383 32.308 167.894 32.007C168.405 31.706 168.993 31.5555 169.658 31.5555C170.316 31.5555 170.9 31.706 171.411 32.007C171.922 32.308 172.321 32.742 172.608 33.309C172.895 33.876 173.039 34.548 173.039 35.325C173.039 36.102 172.895 36.7775 172.608 37.3515C172.321 37.9185 171.922 38.3525 171.411 38.6535C170.9 38.9545 170.316 39.105 169.658 39.105ZM169.658 38.16C170.106 38.16 170.501 38.0515 170.844 37.8345C171.187 37.6105 171.453 37.285 171.642 36.858C171.831 36.431 171.926 35.92 171.926 35.325C171.926 34.429 171.719 33.736 171.306 33.246C170.893 32.749 170.344 32.5005 169.658 32.5005C168.965 32.5005 168.412 32.749 167.999 33.246C167.586 33.736 167.379 34.429 167.379 35.325C167.379 35.92 167.474 36.431 167.663 36.858C167.852 37.285 168.118 37.6105 168.461 37.8345C168.804 38.0515 169.203 38.16 169.658 38.16ZM177.318 39.105C176.625 39.105 176.02 38.9615 175.502 38.6745C174.991 38.3805 174.595 37.95 174.315 37.383C174.035 36.816 173.895 36.1335 173.895 35.3355C173.895 34.5375 174.035 33.855 174.315 33.288C174.602 32.721 175.001 32.2905 175.512 31.9965C176.023 31.7025 176.611 31.5555 177.276 31.5555C178.025 31.5555 178.655 31.7375 179.166 32.1015C179.677 32.4585 180.003 32.9835 180.143 33.6765H179.061C178.921 33.2775 178.697 32.9835 178.389 32.7945C178.081 32.5985 177.71 32.5005 177.276 32.5005C176.562 32.5005 176.006 32.749 175.607 33.246C175.208 33.743 175.008 34.4325 175.008 35.3145C175.008 36.2035 175.208 36.9 175.607 37.404C176.013 37.908 176.576 38.16 177.297 38.16C177.899 38.16 178.379 37.9815 178.736 37.6245C179.1 37.2675 179.278 36.7355 179.271 36.0285H177.57V35.1465H180.353V35.6505C180.353 36.7985 180.094 37.663 179.576 38.244C179.058 38.818 178.305 39.105 177.318 39.105ZM183.265 36.186L180.587 31.65H181.816L183.821 35.1255L185.837 31.65H187.066L184.388 36.186V39H183.265V36.186Z" fill="#464646"/>
</svg>
